<svg xmlns="http://www.w3.org/2000/svg" width="480" height="480" version="1.0" viewBox="0 0 360 360"><path d="M100.9 60c-57.2 28.6-76.2 38.6-78.2 41l-2.7 3.2v151.5l2.2 3.4c2 3 12.1 8.3 77.8 41.3 63.3 31.8 76.2 37.9 79.6 37.8 3.3 0 18.5-7.3 80.2-38.1 66.2-33.1 76.5-38.6 78.2-41.4 2-3.1 2-4.9 1.8-79.4l-.3-76.1-2.5-2.7c-1.4-1.5-14.6-8.8-29.3-16.1l-26.8-13.5-74.2 37.5c-40.8 20.6-76.5 38.8-79.4 40.3l-5.2 2.8-21.6-10.7c-11.8-6-21.5-11.1-21.4-11.5 0-.5 20.2-10.8 44.7-23C148.4 94 184 76.2 203 66.6l34.5-17.4-27.3-13.6C191.4 26.2 182 22 179.8 22.1c-2.3 0-27.5 12.1-78.9 37.9z"/></svg>